<svg xmlns="http://www.w3.org/2000/svg" version="1.1"
  xmlns:x="http://www.w3.org/1999/xlink" id="graphcanvas" width="272" height="210.4" style="grid-row: 1 / span 7;">
  <rect element-row="4" class="stripe even" x="0" y="165.2" width="64.4" height="40" xmlns="http://www.w3.org/2000/svg" style="fill: #ffffff;"/>
  <rect element-row="3" class="stripe odd" x="0" y="125.2" width="64.4" height="40" xmlns="http://www.w3.org/2000/svg" style="fill: #e9e9e9;"/>
  <rect element-row="2" class="stripe even" x="0" y="85.2" width="64.4" height="40" xmlns="http://www.w3.org/2000/svg" style="fill: #ffffff;"/>
  <rect element-row="1" class="stripe odd" x="0" y="45.2" width="64.4" height="40" xmlns="http://www.w3.org/2000/svg" style="fill: #e9e9e9;"/>
  <rect element-row="0" class="stripe even" x="0" y="5.2" width="64.4" height="40" xmlns="http://www.w3.org/2000/svg" style="fill: #ffffff;"/>
  <defs xmlns="http://www.w3.org/2000/svg">
    <marker id="arrow" viewBox="0 0 10 10" refX="33" refY="5" orient="auto" markerUnits="strokeWidth" markerWidth="4.5" makerHeight="4.5" style="stroke: #000000; stroke-width: 2px; fill: #000000;">
      <path d="m 2 2 l 6 3 l -6 3 z"/>
    </marker>
    <clipPath id="squareclip">
      <rect x="-1" y="-1" width="32" height="32"/>
    </clipPath>
  </defs>
  <path xmlns="http://www.w3.org/2000/svg" class="ourline" marker-end="url(#arrow)" d="M 40,25 40,65" style="stroke-opacity: 1; stroke: #000000; stroke-width: 2px; fill: none;"/>
  <path xmlns="http://www.w3.org/2000/svg" class="ourline" marker-end="url(#arrow)" d="M 40,65 40,105" style="stroke-opacity: 1; stroke: #000000; stroke-width: 2px; fill: none;"/>
  <path xmlns="http://www.w3.org/2000/svg" class="ourline" marker-end="url(#arrow)" style="stroke-opacity: 1; stroke: #000000; stroke-width: 2px; fill: none;"/>
  <path xmlns="http://www.w3.org/2000/svg" class="ourline" marker-end="url(#arrow)" style="stroke-opacity: 1; stroke: #000000; stroke-width: 2px; fill: none;"/>
  <path xmlns="http://www.w3.org/2000/svg" class="ourline" marker-end="url(#arrow)" d="M 40,105 40,145" style="stroke-opacity: 1; stroke: #000000; stroke-width: 2px; fill: none;"/>
  <path xmlns="http://www.w3.org/2000/svg" class="ourline" marker-end="url(#arrow)" style="stroke-opacity: 1; stroke: #000000; stroke-width: 2px; fill: none;"/>
  <path xmlns="http://www.w3.org/2000/svg" class="ourline" marker-end="url(#arrow)" style="stroke-opacity: 1; stroke: #000000; stroke-width: 2px; fill: none;"/>
  <path xmlns="http://www.w3.org/2000/svg" class="ourline" marker-end="url(#arrow)" d="M 40,145 40,185" style="stroke-opacity: 1; stroke: #000000; stroke-width: 2px; fill: none;"/>
  <path xmlns="http://www.w3.org/2000/svg" class="ourline" marker-end="url(#arrow)" style="stroke-opacity: 1; stroke: #000000; stroke-width: 2px; fill: none;"/>
  <path xmlns="http://www.w3.org/2000/svg" class="ourline" marker-end="url(#arrow)" style="stroke-opacity: 1; stroke: #000000; stroke-width: 2px; fill: none;"/>
  <g class="group" xmlns="http://www.w3.org/2000/svg" element-id="group-description">
    <g class="element" element-row="0" element-type="description" element-id="description" xmlns="http://www.w3.org/2000/svg">
      <g transform="translate(24.4,10.399999999999999)">
        <text class="super" transform="translate(30,8.4)" style="font-size: 11px; font-style: normal; font-variant: normal; font-weight: bold; font-stretch: normal; text-align: center; line-height: 100%; writing-mode: horizontal-tb; text-anchor: start; color: #000000; fill: #000000; fill-opacity: 1; stroke: none; font-family: Arial; display: none;  display: none; ">
          <tspan class="active" style="fill: #cc0000; display: none;">0</tspan>
          <tspan class="colon" style="display: none;">,</tspan>
          <tspan class="vote" style="fill: #73d216; display: none;">0</tspan>
        </text>
        <g xmlns="http://www.w3.org/2000/svg" class="activities">
          <title xmlns="http://www.w3.org/2000/svg">START</title>
          <circle cx="15" cy="15" r="14" class="cline hfill rfill stand" style="fill: #ffffff; fill-opacity: 1; stroke: #000000; stroke-width: 1.6px; stroke-linecap: round; stroke-linejoin: round; stroke-miterlimit: 4; stroke-opacity: 1; stroke-dasharray: none;"/>
        </g>
      </g>
    </g>
    <g class="element primitive" element-row="1" element-type="callmanipulate" element-id="a1" xmlns="http://www.w3.org/2000/svg" element-endpoint="nextisspasses">
      <g transform="translate(24.4,50.4)">
        <text class="super" transform="translate(30,8.4)" style="font-size: 11px; font-style: normal; font-variant: normal; font-weight: bold; font-stretch: normal; text-align: center; line-height: 100%; writing-mode: horizontal-tb; text-anchor: start; color: #000000; fill: #000000; fill-opacity: 1; stroke: none; font-family: Arial; display: none;  display: none; ">
          <tspan class="active" style="fill: #cc0000; display: none;">0</tspan>
          <tspan class="colon" style="display: none;">,</tspan>
          <tspan class="vote" style="fill: #73d216; display: none;">0</tspan>
        </text>
        <g xmlns="http://www.w3.org/2000/svg" class="activities">
          <title xmlns="http://www.w3.org/2000/svg">Get ISS Passes</title>
          <g class="replace">
            <rect x="1" y="1" width="28" height="28" rx="4" class="cline hfill rfill stand" style="fill: #ffffff; fill-opacity: 1; stroke: #000000; stroke-width: 1.6px; stroke-linecap: round; stroke-linejoin: round; stroke-miterlimit: 4; stroke-opacity: 1; stroke-dasharray: none;"/>
            <path class="normal" style="fill: #000000; fill-opacity: 1; stroke: #000000; stroke-width: 0.2px; stroke-linecap: round; stroke-linejoin: round; stroke-miterlimit: 4; stroke-opacity: 1; stroke-dasharray: none;fill:#000000;" d="m 21.561187,10.184155 c 0,-0.03232 0,-0.03232 0,-0.03232 C 21.076371,9.5054099 20.494591,8.9559512 19.815848,8.4388133 l 0,0.032323 C 19.266389,8.891311 18.71693,9.3438064 18.199794,9.7963017 17.973545,9.6670167 17.779619,9.5700535 17.585693,9.4730903 17.327124,9.3438064 17.068556,9.2145213 16.777665,9.1498799 16.680695,9.1175569 16.583739,9.0852339 16.486775,9.0852339 16.422135,8.3741695 16.357491,7.6631063 16.260528,6.952042 15.937318,6.887396 15.614106,6.887396 15.258574,6.855073 c -0.09697,0 -0.193926,0 -0.258569,0 -0.09697,0 -0.193925,0 -0.258568,0 -0.323211,0.032323 -0.614101,0.032323 -0.90499,0.096969 -0.09697,0.6787425 -0.161606,1.3898068 -0.193927,2.1008712 -0.129284,0 -0.226248,0.032323 -0.355532,0.064646 -0.03232,0 -0.06465,0 -0.09697,0.032323 -0.258568,0.064646 -0.517136,0.1939264 -0.775704,0.3232103 -0.226249,0.096969 -0.420175,0.1939264 -0.614102,0.3232114 -0.549458,-0.4524953 -1.066595,-0.87267 -1.616054,-1.3251654 0,0 0,0 -0.03232,-0.032323 C 10.022552,8.5357845 9.8932693,8.6327419 9.7963053,8.7297051 9.5700583,8.8913109 9.3761314,9.0852373 9.2145262,9.2791637 8.9236366,9.5377327 8.6973883,9.8609431 8.4388194,10.184155 c 0,0 0,0 0.032323,0 0.4201747,0.549459 0.87267,1.066596 1.325166,1.616054 -0.129285,0.193927 -0.258569,0.420175 -0.355533,0.614101 -0.129285,0.258569 -0.226248,0.549459 -0.2908894,0.808028 -0.064646,0.129284 -0.096969,0.258568 -0.096969,0.355531 -0.7110644,0.06465 -1.4221288,0.129285 -2.1008713,0.226248 -0.064646,0.323211 -0.096969,0.646422 -0.096969,1.001954 0,0.484816 0.032323,0.969632 0.1292839,1.422128 0.6787437,0.06465 1.3574862,0.129284 2.0685505,0.193926 0,0.129284 0.032323,0.258569 0.096969,0.355532 0.064646,0.29089 0.1616049,0.549459 0.2908899,0.840349 0.129284,0.226247 0.2262471,0.452495 0.387853,0.646421 -0.452496,0.549459 -0.9049912,1.066596 -1.3251647,1.616054 0.484816,0.678744 1.0665957,1.260523 1.7453387,1.74534 l 0,-0.03232 c 0.517137,-0.420175 1.066596,-0.87267 1.583733,-1.325166 l 0.03232,0 c 0.161605,0.09697 0.355532,0.193928 0.517136,0.290891 0.290891,0.129284 0.614101,0.258568 0.904991,0.32321 0.129284,0.03232 0.226248,0.06465 0.32321,0.09697 0.06465,0.678743 0.129285,1.389807 0.226249,2.100871 0.290889,0.03232 0.581779,0.06465 0.90499,0.06465 0.06465,0 0.258568,0 0.484817,0 0.355532,0 0.711064,-0.03232 1.066595,-0.09697 0.06465,-0.678742 0.129285,-1.389807 0.193926,-2.10087 0.09697,-0.03232 0.193927,-0.06465 0.29089,-0.09697 l 0,0 c 0.290891,-0.06464 0.549459,-0.161605 0.808028,-0.290889 0.226248,-0.09697 0.452495,-0.226248 0.678743,-0.387854 0,0.03232 0,0.03232 0.03232,0.03232 0.517137,0.452495 1.066596,0.904989 1.616054,1.325164 0.09697,-0.06465 0.193927,-0.129284 0.323212,-0.226247 0.193926,-0.161606 0.387852,-0.355532 0.549458,-0.549459 0.29089,-0.290889 0.58178,-0.614101 0.840348,-0.969633 -0.452495,-0.549459 -0.90499,-1.098917 -1.357486,-1.616054 0,-0.03232 0,-0.03232 0,-0.03232 0.09697,-0.161605 0.193927,-0.355531 0.29089,-0.549457 0.09696,-0.258569 0.226248,-0.517138 0.29089,-0.775707 0,-0.03232 0,-0.06465 0.03232,-0.06465 0,-0.129285 0.03232,-0.226248 0.06465,-0.290891 0.711065,-0.06465 1.422129,-0.129284 2.100872,-0.193926 0.06464,-0.323211 0.06464,-0.646422 0.09697,-0.969632 0,-0.09697 0,-0.193927 0,-0.29089 0,-0.06465 0,-0.161606 0,-0.258569 -0.03232,-0.323212 -0.03232,-0.646422 -0.09697,-0.969633 -0.678743,-0.06465 -1.389807,-0.129284 -2.100872,-0.193927 -0.03232,-0.09697 -0.06465,-0.193926 -0.06465,-0.290889 -0.09697,-0.29089 -0.193927,-0.58178 -0.323212,-0.872669 -0.09697,-0.193927 -0.226247,-0.420175 -0.32321,-0.614102 0.420173,-0.517136 0.872669,-1.066595 1.325164,-1.616054 z m -8.629731,2.682651 c 0.581779,-0.614101 1.292844,-0.904991 2.100871,-0.87267 0.840348,-0.03232 1.519091,0.258569 2.133192,0.87267 0.581779,0.581779 0.872669,1.292843 0.872669,2.10087 0,0.840348 -0.29089,1.519092 -0.872669,2.133192 -0.614101,0.58178 -1.292844,0.87267 -2.133192,0.87267 -0.808027,0 -1.519092,-0.29089 -2.100871,-0.87267 -0.581779,-0.6141 -0.872669,-1.292844 -0.872669,-2.133192 0,-0.808027 0.29089,-1.519091 0.872669,-2.10087 z"/>
          </g>
          <rect x="23" y="21" width="12" height="12" rx="2" class="cline rfill stand" style="fill: #ffffff; fill-opacity: 1; stroke: #000000; stroke-width: 1.6px; stroke-linecap: round; stroke-linejoin: round; stroke-miterlimit: 4; stroke-opacity: 1; stroke-dasharray: none;"/>
          <text transform="translate(29,30.75)" class="small" style="font-size: 14px; font-style: normal; font-variant: normal; font-weight: bold; font-stretch: normal; text-align: center; line-height: 125%; writing-mode: horizontal-tb; text-anchor: middle; color: #000000; fill: #000000; fill-opacity: 1; stroke: none; font-family: Arial;">s</text>
        </g>
      </g>
    </g>
    <g class="element primitive" element-row="2" element-type="manipulate" element-id="a8" xmlns="http://www.w3.org/2000/svg">
      <g transform="translate(24.4,90.4)">
        <text class="super" transform="translate(30,8.4)" style="font-size: 11px; font-style: normal; font-variant: normal; font-weight: bold; font-stretch: normal; text-align: center; line-height: 100%; writing-mode: horizontal-tb; text-anchor: start; color: #000000; fill: #000000; fill-opacity: 1; stroke: none; font-family: Arial; display: none;  display: none; ">
          <tspan class="active" style="fill: #cc0000; display: none;">0</tspan>
          <tspan class="colon" style="display: none;">,</tspan>
          <tspan class="vote" style="fill: #73d216; display: none;">0</tspan>
        </text>
        <g xmlns="http://www.w3.org/2000/svg" class="activities">
          <title xmlns="http://www.w3.org/2000/svg">Extract Seven Day Forecast</title>
          <rect x="1" y="1" width="28" height="28" rx="4" class="rfill hfill cline stand" style="fill: #ffffff; fill-opacity: 1; stroke: #000000; stroke-width: 1.6px; stroke-linecap: round; stroke-linejoin: round; stroke-miterlimit: 4; stroke-opacity: 1; stroke-dasharray: none;"/>
          <text transform="translate(15,21)" class="normal" style="font-size: 20px; font-style: normal; font-variant: normal; font-weight: bold; font-stretch: normal; text-align: center; line-height: 125%; writing-mode: horizontal-tb; text-anchor: middle; color: #000000; fill: #000000; fill-opacity: 1; stroke: none; font-family: Arial;fill: #000000; fill-opacity: 1; stroke: #000000; stroke-width: 0.2px; stroke-linecap: round; stroke-linejoin: round; stroke-miterlimit: 4; stroke-opacity: 1; stroke-dasharray: none;">s</text>
        </g>
      </g>
    </g>
    <g class="element primitive" element-row="3" element-type="callmanipulate" element-id="a5" xmlns="http://www.w3.org/2000/svg" element-endpoint="frames_display">
      <g transform="translate(24.4,130.4)">
        <text class="super" transform="translate(30,8.4)" style="font-size: 11px; font-style: normal; font-variant: normal; font-weight: bold; font-stretch: normal; text-align: center; line-height: 100%; writing-mode: horizontal-tb; text-anchor: start; color: #000000; fill: #000000; fill-opacity: 1; stroke: none; font-family: Arial; display: none;  display: none; ">
          <tspan class="active" style="fill: #cc0000; display: none;">0</tspan>
          <tspan class="colon" style="display: none;">,</tspan>
          <tspan class="vote" style="fill: #73d216; display: none;">0</tspan>
        </text>
        <g xmlns="http://www.w3.org/2000/svg" class="activities">
          <title xmlns="http://www.w3.org/2000/svg">Display Forecast Page</title>
          <g xmlns="http://www.w3.org/2000/svg">
            <rect x="1" y="1" width="28" height="28" rx="4" class="cline hfill rfill stand" style="fill: #ffffff; fill-opacity: 1; stroke: #000000; stroke-width: 1.6px; stroke-linecap: round; stroke-linejoin: round; stroke-miterlimit: 4; stroke-opacity: 1; stroke-dasharray: none;"/>
            <path transform="translate(-2,-2)" class="normal" style="fill: #000000; fill-opacity: 1; stroke: #000000; stroke-width: 0.2px; stroke-linecap: round; stroke-linejoin: round; stroke-miterlimit: 4; stroke-opacity: 1; stroke-dasharray: none;fill:#000000;" d="m 15,6.5 a 3.9999995,4 0 0 0 -4,4 3.9999995,4 0 0 0 4,4 3.9999995,4 0 0 0 4,-4 3.9999995,4 0 0 0 -4,-4 z m 0,8 -3.5,0 c -1.108,0 -2,0.892 -2,2 l 0,5 c 0,1.108 0.892,2 2,2 l 7,0 c 1.108,0 2,-0.892 2,-2 l 0,-5 c 0,-1.108 -0.892,-2 -2,-2 l -3.5,0 z"/>
          </g>
          <rect x="23" y="21" width="12" height="12" rx="2" class="cline rfill stand" style="fill: #ffffff; fill-opacity: 1; stroke: #000000; stroke-width: 1.6px; stroke-linecap: round; stroke-linejoin: round; stroke-miterlimit: 4; stroke-opacity: 1; stroke-dasharray: none;"/>
          <text transform="translate(29,30.75)" class="small" style="font-size: 14px; font-style: normal; font-variant: normal; font-weight: bold; font-stretch: normal; text-align: center; line-height: 125%; writing-mode: horizontal-tb; text-anchor: middle; color: #000000; fill: #000000; fill-opacity: 1; stroke: none; font-family: Arial;">s</text>
        </g>
      </g>
    </g>
    <g class="element primitive" element-row="4" element-type="end" element-id="undefined" xmlns="http://www.w3.org/2000/svg">
      <g transform="translate(24.4,170.4)">
        <g xmlns="http://www.w3.org/2000/svg" class="activities">
          <title xmlns="http://www.w3.org/2000/svg"/>
          <circle cx="15" cy="15" r="14" class="standfat" style="fill: #ffffff; fill-opacity: 1; stroke: #000000; stroke-width: 3px; stroke-linecap: round; stroke-linejoin: round; stroke-miterlimit: 4; stroke-opacity: 1; stroke-dasharray: none;"/>
        </g>
      </g>
    </g>
  </g>
  <g transform="translate(62)" xmlns="http://www.w3.org/2000/svg">
    <g xmlns="http://www.w3.org/2000/svg">
      <rect xmlns="http://www.w3.org/2000/svg" element-row="0" class="stripe even" x="0" y="5.2" width="185.23333740234375" height="40" style="fill: #ffffff;"/>
      <rect xmlns="http://www.w3.org/2000/svg" element-row="0" class="border" x="0" y="5.2" height="40" width="1" style="fill: #a1a1a1;"/>
      <rect xmlns="http://www.w3.org/2000/svg" element-row="1" class="stripe odd" x="0" y="45.2" width="185.23333740234375" height="40" style="fill: #e9e9e9;"/>
      <rect xmlns="http://www.w3.org/2000/svg" element-row="1" class="border" x="0" y="45.2" height="40" width="1" style="fill: #a1a1a1;"/>
      <rect xmlns="http://www.w3.org/2000/svg" element-row="2" class="stripe even" x="0" y="85.2" width="185.23333740234375" height="40" style="fill: #ffffff;"/>
      <rect xmlns="http://www.w3.org/2000/svg" element-row="2" class="border" x="0" y="85.2" height="40" width="1" style="fill: #a1a1a1;"/>
      <rect xmlns="http://www.w3.org/2000/svg" element-row="3" class="stripe odd" x="0" y="125.2" width="185.23333740234375" height="40" style="fill: #e9e9e9;"/>
      <rect xmlns="http://www.w3.org/2000/svg" element-row="3" class="border" x="0" y="125.2" height="40" width="1" style="fill: #a1a1a1;"/>
      <rect xmlns="http://www.w3.org/2000/svg" element-row="4" class="stripe even" x="0" y="165.2" width="185.23333740234375" height="40" style="fill: #ffffff;"/>
      <rect xmlns="http://www.w3.org/2000/svg" element-row="4" class="border" x="0" y="165.2" height="40" width="1" style="fill: #a1a1a1;"/>
    </g>
    <g xmlns="http://www.w3.org/2000/svg">
      <text class="label" element-id="a1" x="5" y="69.6" xmlns="http://www.w3.org/2000/svg" style="font-size: 14px; font-style: normal; font-variant: normal; font-stretch: normal; text-align: center; line-height: 125%; writing-mode: horizontal-tb; text-anchor: start; color: #000000; fill: #000000; fill-opacity: 1; stroke: none; font-family: Arial;">Get ISS Passes</text>
      <text class="label" element-id="a8" x="5" y="109.6" xmlns="http://www.w3.org/2000/svg" style="font-size: 14px; font-style: normal; font-variant: normal; font-stretch: normal; text-align: center; line-height: 125%; writing-mode: horizontal-tb; text-anchor: start; color: #000000; fill: #000000; fill-opacity: 1; stroke: none; font-family: Arial;">Extract Seven Day Forecast</text>
      <text class="label" element-id="a5" x="5" y="149.6" xmlns="http://www.w3.org/2000/svg" style="font-size: 14px; font-style: normal; font-variant: normal; font-stretch: normal; text-align: center; line-height: 125%; writing-mode: horizontal-tb; text-anchor: start; color: #000000; fill: #000000; fill-opacity: 1; stroke: none; font-family: Arial;">Display Forecast Page</text>
    </g>
  </g>
  <g transform="translate(246)" xmlns="http://www.w3.org/2000/svg">
    <g xmlns="http://www.w3.org/2000/svg">
      <rect xmlns="http://www.w3.org/2000/svg" element-row="0" class="stripe even" x="0" y="5.2" width="26.56666660308838" height="40" style="fill: #ffffff;"/>
      <rect xmlns="http://www.w3.org/2000/svg" element-row="0" class="border" x="0" y="5.2" height="40" width="1" style="fill: #a1a1a1;"/>
      <rect xmlns="http://www.w3.org/2000/svg" element-row="1" class="stripe odd" x="0" y="45.2" width="26.56666660308838" height="40" style="fill: #e9e9e9;"/>
      <rect xmlns="http://www.w3.org/2000/svg" element-row="1" class="border" x="0" y="45.2" height="40" width="1" style="fill: #a1a1a1;"/>
      <rect xmlns="http://www.w3.org/2000/svg" element-row="2" class="stripe even" x="0" y="85.2" width="26.56666660308838" height="40" style="fill: #ffffff;"/>
      <rect xmlns="http://www.w3.org/2000/svg" element-row="2" class="border" x="0" y="85.2" height="40" width="1" style="fill: #a1a1a1;"/>
      <rect xmlns="http://www.w3.org/2000/svg" element-row="3" class="stripe odd" x="0" y="125.2" width="26.56666660308838" height="40" style="fill: #e9e9e9;"/>
      <rect xmlns="http://www.w3.org/2000/svg" element-row="3" class="border" x="0" y="125.2" height="40" width="1" style="fill: #a1a1a1;"/>
      <rect xmlns="http://www.w3.org/2000/svg" element-row="4" class="stripe even" x="0" y="165.2" width="26.56666660308838" height="40" style="fill: #ffffff;"/>
      <rect xmlns="http://www.w3.org/2000/svg" element-row="4" class="border" x="0" y="165.2" height="40" width="1" style="fill: #a1a1a1;"/>
    </g>
    <g xmlns="http://www.w3.org/2000/svg">
      <text class="label" element-id="a1" x="5" y="69.6" xmlns="http://www.w3.org/2000/svg" style="font-size: 14px; font-style: normal; font-variant: normal; font-stretch: normal; text-align: center; line-height: 125%; writing-mode: horizontal-tb; text-anchor: start; color: #000000; fill: #000000; fill-opacity: 1; stroke: none; font-family: Arial;">a1</text>
      <text class="label" element-id="a8" x="5" y="109.6" xmlns="http://www.w3.org/2000/svg" style="font-size: 14px; font-style: normal; font-variant: normal; font-stretch: normal; text-align: center; line-height: 125%; writing-mode: horizontal-tb; text-anchor: start; color: #000000; fill: #000000; fill-opacity: 1; stroke: none; font-family: Arial;">a8</text>
      <text class="label" element-id="a5" x="5" y="149.6" xmlns="http://www.w3.org/2000/svg" style="font-size: 14px; font-style: normal; font-variant: normal; font-stretch: normal; text-align: center; line-height: 125%; writing-mode: horizontal-tb; text-anchor: start; color: #000000; fill: #000000; fill-opacity: 1; stroke: none; font-family: Arial;">a5</text>
    </g>
  </g>
</svg>